<?xml version="1.0" standalone="no"?>
<!DOCTYPE svg PUBLIC "-//W3C//DTD SVG 20010904//EN"
 "http://www.w3.org/TR/2001/REC-SVG-20010904/DTD/svg10.dtd">
<svg version="1.0" xmlns="http://www.w3.org/2000/svg"
 width="876.000000pt" height="876.000000pt" viewBox="0 0 876.000000 876.000000"
 preserveAspectRatio="xMidYMid meet">
<metadata>
Created by potrace 1.14, written by Peter Selinger 2001-2017
</metadata>
<g transform="translate(0.000000,876.000000) scale(0.100000,-0.100000)"
fill="#000000" stroke="none">
<path d="M25 6396 c-17 -12 -18 -29 -18 -207 1 -107 4 -783 7 -1503 l5 -1309
38 -41 c38 -40 166 -175 253 -266 172 -179 375 -393 391 -411 21 -25 -77 -22
1504 -34 1341 -9 1575 -9 1587 3 7 7 10 42 9 87 -1 43 -4 717 -5 1498 -2 782
-7 1431 -11 1442 -4 11 -172 185 -374 388 l-366 367 -1501 0 c-1246 0 -1504
-3 -1519 -14z m2295 -1161 c6 -3 10 -1 10 5 0 6 5 8 12 4 6 -4 61 -8 122 -8
l111 -1 2 -130 c1 -71 4 -251 7 -400 3 -148 6 -409 8 -580 l3 -310 -705 0
-704 0 -1 705 c0 388 1 711 4 719 3 11 98 12 562 8 308 -3 564 -9 569 -12z"/>
<path d="M7130 6400 c-14 -4 -518 -7 -1120 -8 -602 -1 -1260 -2 -1461 -2 -293
-1 -370 -3 -385 -14 -17 -13 -18 -32 -16 -352 2 -187 4 -405 5 -487 1 -92 -2
-147 -8 -147 -7 0 -7 -3 0 -8 7 -4 10 -354 10 -1014 l0 -1007 54 -58 c29 -32
129 -137 222 -233 92 -96 214 -224 271 -284 57 -60 117 -123 134 -139 l30 -29
385 -4 c521 -5 1821 -15 1943 -15 l99 0 119 -117 c66 -64 122 -119 125 -122 2
-3 172 -6 376 -7 205 -1 463 -3 575 -4 111 -1 205 0 207 3 2 2 -167 175 -376
383 l-380 380 -3 1250 c-2 1007 -5 1255 -15 1275 -14 26 -725 746 -751 759 -8
5 -26 5 -40 1z m-550 -1183 l135 -2 2 -125 c2 -69 5 -309 8 -535 3 -225 7
-489 9 -586 l3 -176 -703 -1 c-535 -1 -703 2 -706 11 -3 10 -2 1374 1 1415 1
11 101 12 559 8 306 -4 618 -7 692 -9z"/>
</g>
</svg>
